name C:\Users\u0101727\Documents\MyRepositories\upper-imu-dc\OpenSim\subject0\MA\ResultsMA\grid_3nodes_9dim\angles_1.mot
datacolumns 10
datarows 33
range 100.01000000 100.33000000
endheader 
time	clav_prot	clav_elev	scapula_abduction	scapula_elevation	scapula_upward_rot	scapula_winging	plane_elv	shoulder_elv	axial_rot	
        100.01000000	        -32.50000000	        -10.00000000	        -12.50000000	          0.00000000	          0.00000000	         10.00000000	          0.00000000	         45.00000000	          0.00000000	
        100.02000000	        -15.00000000	        -10.00000000	        -12.50000000	          0.00000000	          0.00000000	         10.00000000	          0.00000000	         45.00000000	          0.00000000	
        100.03000000	        -50.00000000	          5.00000000	        -12.50000000	          0.00000000	          0.00000000	         10.00000000	          0.00000000	         45.00000000	          0.00000000	
        100.04000000	        -32.50000000	          5.00000000	        -12.50000000	          0.00000000	          0.00000000	         10.00000000	          0.00000000	         45.00000000	          0.00000000	
        100.05000000	        -15.00000000	          5.00000000	        -12.50000000	          0.00000000	          0.00000000	         10.00000000	          0.00000000	         45.00000000	          0.00000000	
        100.06000000	        -50.00000000	         20.00000000	        -12.50000000	          0.00000000	          0.00000000	         10.00000000	          0.00000000	         45.00000000	          0.00000000	
        100.07000000	        -32.50000000	         20.00000000	        -12.50000000	          0.00000000	          0.00000000	         10.00000000	          0.00000000	         45.00000000	          0.00000000	
        100.08000000	        -15.00000000	         20.00000000	        -12.50000000	          0.00000000	          0.00000000	         10.00000000	          0.00000000	         45.00000000	          0.00000000	
        100.09000000	        -50.00000000	        -10.00000000	         15.00000000	          0.00000000	          0.00000000	         10.00000000	          0.00000000	         45.00000000	          0.00000000	
        100.10000000	        -32.50000000	        -10.00000000	         15.00000000	          0.00000000	          0.00000000	         10.00000000	          0.00000000	         45.00000000	          0.00000000	
        100.11000000	        -15.00000000	        -10.00000000	         15.00000000	          0.00000000	          0.00000000	         10.00000000	          0.00000000	         45.00000000	          0.00000000	
        100.12000000	        -50.00000000	          5.00000000	         15.00000000	          0.00000000	          0.00000000	         10.00000000	          0.00000000	         45.00000000	          0.00000000	
        100.13000000	        -32.50000000	          5.00000000	         15.00000000	          0.00000000	          0.00000000	         10.00000000	          0.00000000	         45.00000000	          0.00000000	
        100.14000000	        -15.00000000	          5.00000000	         15.00000000	          0.00000000	          0.00000000	         10.00000000	          0.00000000	         45.00000000	          0.00000000	
        100.15000000	        -50.00000000	         20.00000000	         15.00000000	          0.00000000	          0.00000000	         10.00000000	          0.00000000	         45.00000000	          0.00000000	
        100.16000000	        -32.50000000	         20.00000000	         15.00000000	          0.00000000	          0.00000000	         10.00000000	          0.00000000	         45.00000000	          0.00000000	
        100.17000000	        -15.00000000	         20.00000000	         15.00000000	          0.00000000	          0.00000000	         10.00000000	          0.00000000	         45.00000000	          0.00000000	
        100.18000000	        -50.00000000	        -10.00000000	        -40.00000000	         10.00000000	          0.00000000	         10.00000000	          0.00000000	         45.00000000	          0.00000000	
        100.19000000	        -32.50000000	        -10.00000000	        -40.00000000	         10.00000000	          0.00000000	         10.00000000	          0.00000000	         45.00000000	          0.00000000	
        100.20000000	        -15.00000000	        -10.00000000	        -40.00000000	         10.00000000	          0.00000000	         10.00000000	          0.00000000	         45.00000000	          0.00000000	
        100.21000000	        -50.00000000	          5.00000000	        -40.00000000	         10.00000000	          0.00000000	         10.00000000	          0.00000000	         45.00000000	          0.00000000	
        100.22000000	        -32.50000000	          5.00000000	        -40.00000000	         10.00000000	          0.00000000	         10.00000000	          0.00000000	         45.00000000	          0.00000000	
        100.23000000	        -15.00000000	          5.00000000	        -40.00000000	         10.00000000	          0.00000000	         10.00000000	          0.00000000	         45.00000000	          0.00000000	
        100.24000000	        -50.00000000	         20.00000000	        -40.00000000	         10.00000000	          0.00000000	         10.00000000	          0.00000000	         45.00000000	          0.00000000	
        100.25000000	        -32.50000000	         20.00000000	        -40.00000000	         10.00000000	          0.00000000	         10.00000000	          0.00000000	         45.00000000	          0.00000000	
        100.26000000	        -15.00000000	         20.00000000	        -40.00000000	         10.00000000	          0.00000000	         10.00000000	          0.00000000	         45.00000000	          0.00000000	
        100.27000000	        -50.00000000	        -10.00000000	        -12.50000000	         10.00000000	          0.00000000	         10.00000000	          0.00000000	         45.00000000	          0.00000000	
        100.28000000	        -32.50000000	        -10.00000000	        -12.50000000	         10.00000000	          0.00000000	         10.00000000	          0.00000000	         45.00000000	          0.00000000	
        100.29000000	        -15.00000000	        -10.00000000	        -12.50000000	         10.00000000	          0.00000000	         10.00000000	          0.00000000	         45.00000000	          0.00000000	
        100.30000000	        -50.00000000	          5.00000000	        -12.50000000	         10.00000000	          0.00000000	         10.00000000	          0.00000000	         45.00000000	          0.00000000	
        100.31000000	        -32.50000000	          5.00000000	        -12.50000000	         10.00000000	          0.00000000	         10.00000000	          0.00000000	         45.00000000	          0.00000000	
        100.32000000	        -15.00000000	          5.00000000	        -12.50000000	         10.00000000	          0.00000000	         10.00000000	          0.00000000	         45.00000000	          0.00000000	
        100.33000000	        -50.00000000	         20.00000000	        -12.50000000	         10.00000000	          0.00000000	         10.00000000	          0.00000000	         45.00000000	          0.00000000	
